<svg width="17" height="12" viewBox="0 0 17 12" fill="none" xmlns="http://www.w3.org/2000/svg">
<path d="M1.16587 2.80463L8.48854 11.1186C8.55487 11.1878 8.63451 11.2429 8.72267 11.2805C8.81083 11.3181 8.90569 11.3375 9.00154 11.3375C9.09738 11.3375 9.19224 11.3181 9.2804 11.2805C9.36856 11.2429 9.44821 11.1878 9.51454 11.1186L16.8339 2.80463C16.8924 2.73868 16.9371 2.66163 16.9653 2.57806C16.9934 2.4945 17.0045 2.40612 16.9979 2.31819C16.9912 2.23025 16.967 2.14455 16.9265 2.06618C16.8861 1.9878 16.8303 1.91836 16.7625 1.86196L15.5292 0.823963C15.3917 0.708014 15.2141 0.650788 15.0347 0.664632C14.8554 0.678476 14.6886 0.762282 14.5705 0.897963L9.1272 7.19996C9.11156 7.21815 9.09217 7.23274 9.07037 7.24274C9.04856 7.25274 9.02486 7.25792 9.00087 7.25792C8.97688 7.25792 8.95318 7.25274 8.93137 7.24274C8.90957 7.23274 8.89018 7.21815 8.87454 7.19996L3.4292 0.899963C3.37053 0.832412 3.29911 0.777093 3.21903 0.737169C3.13896 0.697246 3.0518 0.673502 2.96254 0.667296C2.87377 0.659382 2.78432 0.669346 2.69947 0.696599C2.61462 0.723851 2.53609 0.76784 2.46854 0.825963L1.23454 1.86463C1.1669 1.92113 1.11127 1.99062 1.07095 2.06899C1.03062 2.14736 1.00642 2.23301 0.999772 2.3209C0.993122 2.40878 1.00416 2.4971 1.03223 2.58065C1.0603 2.66419 1.10484 2.74126 1.1632 2.8073L1.16587 2.80463Z" fill="#1CE777"/>
</svg>
